<?xml version="1.0" encoding="UTF-8"?>
<svg id="Layer_1" data-name="Layer 1" xmlns="http://www.w3.org/2000/svg" viewBox="0 0 252 144">
  <defs>
    <style>
      .cls-1 {
        fill: #dadada;
        stroke-width: 0px;
      }
    </style>
  </defs>
  <path class="cls-1" d="M190.63,81.41h-3.26c-54.09,0-108.18,0-162.27,0-5.57,0-8.71-1.97-10.12-6.32-1.95-6.02,1.77-11.79,8.04-12.45,1.16-.12,2.34-.13,3.51-.13,53.65,0,107.3,0,160.95,0,.93,0,1.85,0,3.24,0-.76-.85-1.14-1.34-1.58-1.78-8.87-8.85-17.74-17.71-26.63-26.54-.87-.87-1.95-1.53-2.81-2.4-3.93-4.03-4.09-9.85-.2-13.53,3.35-3.18,9.68-4.09,13.73-.03,3.67,3.68,7.36,7.35,11.04,11.03,6.53,6.53,13.03,13.09,19.59,19.59,5.35,5.3,10.81,10.49,16.16,15.78,4.68,4.63,4.63,9.96-.02,14.64-4.08,4.11-8.16,8.22-12.27,12.29-11.39,11.28-22.79,22.55-34.21,33.8-3.29,3.24-6.91,3.95-10.61,2.2-4.39-2.07-6.46-5.27-6.18-9.61.18-2.84,1.84-4.87,3.8-6.7,1.22-1.14,2.56-2.16,3.74-3.34,8.15-8.12,16.28-16.26,24.42-24.4.55-.55,1.05-1.14,1.95-2.11Z"/>
</svg>